<svg width="16" height="16" viewBox="0 0 16 16" fill="none" xmlns="http://www.w3.org/2000/svg">
<path fill-rule="evenodd" clip-rule="evenodd" d="M11.2071 2.29289C10.8166 1.90237 10.1834 1.90237 9.79289 2.29289L7.79314 4.29265L2.29289 9.79289C2.10536 9.98043 2 10.2348 2 10.5V13C2 13.5523 2.44772 14 3 14H5.5C5.76522 14 6.01957 13.8946 6.20711 13.7071L11.7062 8.20799C11.7065 8.2077 11.7068 8.2074 11.7071 8.20711C11.7074 8.20681 11.7077 8.20652 11.708 8.20622L13.7071 6.20711C14.0976 5.81658 14.0976 5.18342 13.7071 4.79289L11.2071 2.29289ZM11 6.08579L11.5858 5.5L10.5 4.41421L9.91421 5L11 6.08579ZM8.5 6.41421L4 10.9142V12H5.08579L9.58579 7.5L8.5 6.41421Z" fill="#FDFDFD"/>
</svg>
