<svg width="16" height="16" viewBox="0 0 16 16" fill="none" xmlns="http://www.w3.org/2000/svg">
<path d="M3.05048 7.29288C1.48838 8.85497 1.48838 11.3876 3.05048 12.9497C4.61258 14.5118 7.14524 14.5118 8.70733 12.9497L9.76799 11.8891C10.1585 11.4985 10.1585 10.8654 9.76799 10.4749C9.37747 10.0843 8.7443 10.0843 8.35378 10.4749L7.29312 11.5355C6.51207 12.3166 5.24574 12.3166 4.46469 11.5355C3.68364 10.7545 3.68364 9.48814 4.46469 8.70709L5.52535 7.64643C5.91588 7.25591 5.91588 6.62274 5.52535 6.23222C5.13483 5.84169 4.50166 5.84169 4.11114 6.23222L3.05048 7.29288Z" fill="#8E9297"/>
<path d="M7.29312 3.05024C8.85522 1.48814 11.3879 1.48814 12.95 3.05023C14.5121 4.61233 14.5121 7.14499 12.95 8.70709L11.8893 9.76775C11.4988 10.1583 10.8656 10.1583 10.4751 9.76775C10.0846 9.37722 10.0846 8.74406 10.4751 8.35354L11.5358 7.29288C12.3168 6.51183 12.3168 5.2455 11.5358 4.46445C10.7547 3.6834 9.48838 3.6834 8.70733 4.46445L7.64667 5.52511C7.25615 5.91563 6.62298 5.91563 6.23246 5.52511C5.84193 5.13458 5.84193 4.50142 6.23246 4.1109L7.29312 3.05024Z" fill="#8E9297"/>
<path d="M5.87891 8.70709C5.48838 9.09761 5.48838 9.73078 5.87891 10.1213C6.26943 10.5118 6.9026 10.5118 7.29312 10.1213L10.1215 7.29288C10.5121 6.90235 10.5121 6.26919 10.1215 5.87866C9.73102 5.48814 9.09786 5.48814 8.70733 5.87866L5.87891 8.70709Z" fill="#8E9297"/>
</svg>
