<svg width="24" height="24" viewBox="0 0 24 24" fill="none" xmlns="http://www.w3.org/2000/svg">
<path d="M9.75 4.5C9.75 3.94772 9.30228 3.5 8.75 3.5C8.19772 3.5 7.75 3.94772 7.75 4.5V7.5C7.75 8.05228 8.19772 8.5 8.75 8.5C9.30228 8.5 9.75 8.05228 9.75 7.5V4.5Z" fill="#8E9297"/>
<path fill-rule="evenodd" clip-rule="evenodd" d="M19 10V7H17.25V5H20C20.5523 5 21 5.44772 21 6V20C21 20.5523 20.5523 21 20 21H4C3.44772 21 3 20.5523 3 20V6C3 5.44772 3.44772 5 4 5H6.75V7H5V10H19ZM19 12H5V19H19V12Z" fill="#8E9297"/>
<path d="M15.25 3.5C15.8023 3.5 16.25 3.94772 16.25 4.5V7.5C16.25 8.05228 15.8023 8.5 15.25 8.5C14.6977 8.5 14.25 8.05228 14.25 7.5V4.5C14.25 3.94772 14.6977 3.5 15.25 3.5Z" fill="#8E9297"/>
<path d="M13.25 7H10.75V5H13.25V7Z" fill="#8E9297"/>
</svg>
