<svg width="24" height="24" viewBox="0 0 24 24" fill="none" xmlns="http://www.w3.org/2000/svg">
<path fill-rule="evenodd" clip-rule="evenodd" d="M15.5 3C15.7652 3 16.0196 3.10536 16.2071 3.29289L19.2071 6.29289C19.5976 6.68342 19.5976 7.31658 19.2071 7.70711L17.2081 9.70609C17.2078 9.70643 17.2074 9.70677 17.2071 9.70711C17.2068 9.70745 17.2064 9.70778 17.2061 9.70812L9.20711 17.7071C9.01957 17.8946 8.76522 18 8.5 18H5.5C4.94772 18 4.5 17.5523 4.5 17V14C4.5 13.7348 4.60536 13.4804 4.79289 13.2929L12.7927 5.2931L14.7929 3.29289C14.9804 3.10536 15.2348 3 15.5 3ZM13.5 7.41421L6.5 14.4142V16H8.08579L15.0858 9L13.5 7.41421ZM16.5 7.58579L14.9142 6L15.5 5.41421L17.0858 7L16.5 7.58579Z" fill="#8E9297"/>
<path d="M4 20C4 19.4477 4.44772 19 5 19H19C19.5523 19 20 19.4477 20 20C20 20.5523 19.5523 21 19 21H5C4.44772 21 4 20.5523 4 20Z" fill="#8E9297"/>
</svg>
