<svg width="64" height="108" viewBox="0 0 64 108" fill="none" xmlns="http://www.w3.org/2000/svg">
<path fill-rule="evenodd" clip-rule="evenodd" d="M27 25C23.134 25 20 28.134 20 32C20 35.866 23.134 39 27 39H37C40.866 39 44 35.866 44 32C44 28.134 40.866 25 37 25H27ZM32 32C32 29.2386 34.2386 27 37 27C39.7614 27 42 29.2386 42 32C42 34.7614 39.7614 37 37 37C34.2386 37 32 34.7614 32 32Z" fill="#FAA61A"/>
<path fill-rule="evenodd" clip-rule="evenodd" d="M37 69C40.866 69 44 72.134 44 76C44 79.866 40.866 83 37 83H27C23.134 83 20 79.866 20 76C20 72.134 23.134 69 27 69H37ZM32 76C32 73.2386 29.7614 71 27 71C24.2386 71 22 73.2386 22 76C22 78.7614 24.2386 81 27 81C29.7614 81 32 78.7614 32 76Z" fill="#636568"/>
<rect x="0.5" y="0.5" width="63" height="107" rx="4.5" stroke="#7B61FF" stroke-dasharray="10 5"/>
</svg>
