<svg width="24" height="24" viewBox="0 0 24 24" fill="none" xmlns="http://www.w3.org/2000/svg">
<path d="M8 4C8 3.44772 8.44772 3 9 3H15C15.5523 3 16 3.44772 16 4C16 4.55228 15.5523 5 15 5H9C8.44772 5 8 4.55228 8 4Z" fill="#8E9297"/>
<path d="M14.2071 10.7929C14.5976 11.1834 14.5976 11.8166 14.2071 12.2071L13.4142 13L14.2071 13.7929C14.5976 14.1834 14.5976 14.8166 14.2071 15.2071C13.8166 15.5976 13.1834 15.5976 12.7929 15.2071L12 14.4142L11.2071 15.2071C10.8166 15.5976 10.1834 15.5976 9.79289 15.2071C9.40237 14.8166 9.40237 14.1834 9.79289 13.7929L10.5858 13L9.79289 12.2071C9.40237 11.8166 9.40237 11.1834 9.79289 10.7929C10.1834 10.4024 10.8166 10.4024 11.2071 10.7929L12 11.5858L12.7929 10.7929C13.1834 10.4024 13.8166 10.4024 14.2071 10.7929Z" fill="#8E9297"/>
<path fill-rule="evenodd" clip-rule="evenodd" d="M4 7C4 6.44772 4.44772 6 5 6H19C19.5523 6 20 6.44772 20 7C20 7.55228 19.5523 8 19 8H18.0001C18.0001 8.0275 17.9989 8.05521 17.9966 8.0831L16.9966 20.0831C16.9534 20.6014 16.5201 21.0001 16.0001 21.0001H8.00006C7.47997 21.0001 7.0467 20.6014 7.00351 20.0831L6.00351 8.0831C6.00119 8.05521 6.00003 8.0275 6 8H5C4.44772 8 4 7.55228 4 7ZM8.00352 8L8.92019 19.0001H15.0799L15.9966 8H8.00352Z" fill="#8E9297"/>
</svg>
